<?xml version="1.0" standalone="no"?><!DOCTYPE svg PUBLIC "-//W3C//DTD SVG 1.1//EN" "http://www.w3.org/Graphics/SVG/1.1/DTD/svg11.dtd"><svg t="1610871769625" class="icon" viewBox="0 0 1024 1024" version="1.1" xmlns="http://www.w3.org/2000/svg" p-id="3576" xmlns:xlink="http://www.w3.org/1999/xlink" width="200" height="200"><defs><style type="text/css"></style></defs><path d="M609.2 317.4c21.4 0 39-17.4 39-39 0-21.4-17.4-39-39-39h-194.6c-21.4 0-39 17.4-39 39 0 21.4 17.4 39 39 39h194.6z" fill="#E6E7E8" p-id="3577"></path><path d="M609.2 239.6h-39c21.4 0 39 17.4 39 39 0 21.4-17.4 39-39 39h39c21.4 0 39-17.4 39-39s-17.4-39-39-39z" fill="#BCBEC0" p-id="3578"></path><path d="M414.8 317.4h39c-21.4 0-39-17.4-39-39 0-21.4 17.4-39 39-39h-39c-21.4 0-39 17.4-39 39s17.4 39 39 39z" fill="#FFFFFF" p-id="3579"></path><path d="M609.2 327.2h-194.6c-26.8 0-48.6-21.8-48.6-48.6s21.8-48.6 48.6-48.6h194.6c26.8 0 48.6 21.8 48.6 48.6 0.2 26.8-21.6 48.6-48.6 48.6z m-194.4-77.8c-16 0-29.2 13-29.2 29.2 0 16 13 29.2 29.2 29.2h194.6c16 0 29.2-13 29.2-29.2 0-16-13-29.2-29.2-29.2h-194.6z" fill="#402943" p-id="3580"></path><path d="M589.8 407.4v-90h-155.6v90c-101.6 32.8-175.2 128.2-175.2 240.8 0 139.8 113.2 253 253 253S765 788 765 648.2c0-112.6-73.6-207.8-175.2-240.8z" fill="#FFFFFF" p-id="3581"></path><path d="M589.8 407.4v-90h-92.4v90c101.6 32.8 175.2 128.2 175.2 240.8 0 124-89.2 227-206.8 248.8 15 2.8 30.4 4.2 46.2 4.2 139.8 0 253-113.2 253-253 0-112.6-73.6-207.8-175.2-240.8z" fill="#E6E7E8" p-id="3582"></path><path d="M512 910.8c-144.8 0-262.6-117.8-262.6-262.6 0-112 70-210.6 175.2-247.8v-83c0-5.4 4.4-9.8 9.8-9.8H590c5.4 0 9.8 4.4 9.8 9.8v83c105 37 175.2 135.8 175.2 247.8-0.4 144.8-118.2 262.6-263 262.6z m-68.2-583.6v80.4c0 4.2-2.8 8-6.8 9.2-100.8 32.6-168.4 125.6-168.4 231.4 0 134.2 109.2 243.2 243.2 243.2s243.2-109.2 243.2-243.2c0-106-67.6-199-168.4-231.4-4-1.2-6.8-5-6.8-9.2v-80.4h-136z" fill="#402943" p-id="3583"></path><path d="M453.6 122.8h116.8v116.8h-116.8z" fill="#FCD64B" p-id="3584"></path><path d="M551 122.8h19.4v116.8h-19.4z" fill="#F5AB33" p-id="3585"></path><path d="M453.6 122.8h39v116.8h-39z" fill="#FFECA6" p-id="3586"></path><path d="M570.4 249.4h-116.8c-5.4 0-9.8-4.4-9.8-9.8V122.8c0-5.4 4.4-9.8 9.8-9.8h116.8c5.4 0 9.8 4.4 9.8 9.8v116.8c0 5.4-4.4 9.8-9.8 9.8z m-107-19.6h97.2V132.6h-97.2v97.2z" fill="#402943" p-id="3587"></path><path d="M531.4 166.6h-77.8c-2.6 0-4.8-2.2-4.8-4.8s2.2-4.8 4.8-4.8h77.8c2.6 0 4.8 2.2 4.8 4.8s-2 4.8-4.8 4.8z" fill="#402943" p-id="3588"></path><path d="M570.4 166.6h-19.4c-2.6 0-4.8-2.2-4.8-4.8s2.2-4.8 4.8-4.8h19.4c2.6 0 4.8 2.2 4.8 4.8s-2.2 4.8-4.8 4.8z" fill="#402943" p-id="3589"></path><path d="M298 648.2c0 118.2 95.8 214 214 214s214-95.8 214-214H298z" fill="#F05458" p-id="3590"></path><path d="M298 648.2h58.4c0 108.4 80.4 197.8 184.8 212-9.6 1.4-19.2 2-29.2 2-118.2 0-214-95.8-214-214z" fill="#F0787B" p-id="3591"></path><path d="M726 648.2h-58.4c0 108.4-80.4 197.8-184.8 212 9.6 1.4 19.2 2 29.2 2 118.2 0 214-95.8 214-214z" fill="#D9383C" p-id="3592"></path><path d="M512 872c-123.4 0-223.8-100.4-223.8-223.8 0-5.4 4.4-9.8 9.8-9.8h428c5.4 0 9.8 4.4 9.8 9.8 0 123.4-100.4 223.8-223.8 223.8zM308 658c5 108.2 94.6 194.6 204 194.6s199-86.4 204-194.6H308z" fill="#402943" p-id="3593"></path><path d="M453.6 765m-19.4 0a19.4 19.4 0 1 0 38.8 0 19.4 19.4 0 1 0-38.8 0Z" fill="#F0787B" p-id="3594"></path><path d="M453.6 789.2c-13.4 0-24.4-11-24.4-24.4 0-13.4 11-24.4 24.4-24.4 13.4 0 24.4 11 24.4 24.4 0 13.6-11 24.4-24.4 24.4z m0-38.8c-8 0-14.6 6.6-14.6 14.6s6.6 14.6 14.6 14.6 14.6-6.6 14.6-14.6-6.6-14.6-14.6-14.6z" fill="#402943" p-id="3595"></path><path d="M414.8 706.6m-29.2 0a29.2 29.2 0 1 0 58.4 0 29.2 29.2 0 1 0-58.4 0Z" fill="#F0787B" p-id="3596"></path><path d="M414.8 740.6c-18.8 0-34-15.2-34-34s15.2-34 34-34 34 15.2 34 34-15.4 34-34 34z m0-58.4c-13.4 0-24.4 11-24.4 24.4 0 13.4 11 24.4 24.4 24.4 13.4 0 24.4-11 24.4-24.4-0.2-13.4-11-24.4-24.4-24.4z" fill="#402943" p-id="3597"></path><path d="M589.8 417.2h-97.2c-2.6 0-4.8-2.2-4.8-4.8 0-2.6 2.2-4.8 4.8-4.8h97.2c2.6 0 4.8 2.2 4.8 4.8 0 2.6-2 4.8-4.8 4.8z" fill="#402943" p-id="3598"></path></svg>